<?xml version="1.0" encoding="utf-8"?>
<!-- Generator: Adobe Illustrator 23.0.1, SVG Export Plug-In . SVG Version: 6.00 Build 0)  -->
<svg version="1.1" id="PTLogo" xmlns="http://www.w3.org/2000/svg" xmlns:xlink="http://www.w3.org/1999/xlink" x="0px" y="0px"
	 viewBox="0 0 1000 1000" style="enable-background:new 0 0 1000 1000;" xml:space="preserve">
<title>PTLogo</title>
<polygon points="391.27,771.43 391.27,572 191.84,572 191.84,527.14 635.56,527.14 635.56,572 436.13,572
	436.13,771.43 "/>
<path d="M633.06,529.64v39.86H433.63v199.43h-39.86V569.5H194.34v-39.86H633.06 M638.06,524.64H189.34v49.86h199.43
	v199.43h49.86V574.5h199.43V524.64z"/>
<path d="M690.42,527.09c42.65-1.66,75.89-37.58,74.23-80.23c-1.61-41.29-35.41-74.02-76.73-74.29H436.13v99.71h-44.86
	V327.71h296.26c67.42,0.08,122.06,54.72,122.14,122.14c0,66.31-53.26,120.58-119.25,122.11V527.09z"/>
<path d="M687.53,330.21c66.08,0.1,119.57,53.75,119.47,119.83c-0.1,63.84-50.3,116.36-114.08,119.34v-39.92
	c43.96-3.03,77.15-41.12,74.12-85.08c-2.87-41.66-37.37-74.05-79.12-74.31H433.63v99.71h-39.86V330.21H687.53 M687.92,325.21
	L687.92,325.21z M687.53,325.21H388.77v149.57h49.86v-99.71h248.9c41.3,0,74.78,33.48,74.79,74.78l0,0
	c0,41.31-33.48,74.79-74.79,74.79h0.39v49.86c68.69-0.21,124.25-55.95,124.26-124.64l0,0C812.18,381.02,756.37,325.21,687.53,325.21
	z M687.92,574.5L687.92,574.5z"/>
<polygon points="629.76,771.32 629.76,726.32 864.26,726.32 864.26,273.57 135.74,273.57 135.74,726.32 335.26,726.32
	335.26,771.32 90.74,771.32 90.74,228.57 909.26,228.57 909.26,771.32 "/>
<path d="M906.76,231.07v537.75h-274.5v-40h234.5V271.07H133.24v457.75h199.52v40H93.24V231.07H906.76 M911.76,226.07
	H88.24v547.75h249.52v-50H138.24V276.07h723.52v447.75h-234.5v50h284.5V226.07z"/>
</svg>
